<?xml version="1.0" encoding="utf-8"?>
<!-- Generator: Adobe Illustrator 18.0.0, SVG Export Plug-In . SVG Version: 6.00 Build 0)  -->
<!DOCTYPE svg PUBLIC "-//W3C//DTD SVG 1.1//EN" "http://www.w3.org/Graphics/SVG/1.1/DTD/svg11.dtd">
<svg version="1.1" id="Calque_1" xmlns="http://www.w3.org/2000/svg" xmlns:xlink="http://www.w3.org/1999/xlink" x="0px" y="0px"
	 viewBox="5.7 3.4 20.5 19" enable-background="new 5.7 3.4 20.5 19" xml:space="preserve">
<g>
	<path fill="#F1391A" d="M25.7,19.8L16.8,4.1c-0.2-0.4-0.4-0.7-1-0.7s-0.9,0.3-1.1,0.7L6,19.8c-0.7,1.3-0.4,2.6,1.5,2.6h16.7
		C26.2,22.4,26.5,21.1,25.7,19.8z M16.8,19.3c0,0.3-0.3,0.5-0.9,0.5h-0.5c-0.6,0-0.9-0.2-0.9-0.5v-1.4c0-0.3,0.3-0.5,0.9-0.5h0.5
		c0.6,0,0.9,0.2,0.9,0.5V19.3z M16.5,15.9c0,0.3-0.2,0.5-0.8,0.5h-0.2c-0.6,0-0.8-0.2-0.8-0.5V9.5C14.8,9.2,15,9,15.7,9h0.7
		c0.6,0,0.9,0.2,0.9,0.4C17,11.6,16.7,13.7,16.5,15.9z"/>
</g>
</svg>
