<?xml version="1.0" encoding="utf-8"?>
<!-- Generator: Adobe Illustrator 19.1.0, SVG Export Plug-In . SVG Version: 6.00 Build 0)  -->
<svg version="1.1" id="Calque_1" xmlns="http://www.w3.org/2000/svg" xmlns:xlink="http://www.w3.org/1999/xlink" x="0px" y="0px"
	 width="304.4px" height="38.2px" viewBox="-327 261.8 304.4 38.2" style="enable-background:new -327 261.8 304.4 38.2;"
	 xml:space="preserve">
<style type="text/css">
	.st0{fill:#FFFFFF;}
</style>
<g>
	<g>
		<path class="st0" d="M-22.8,291.9c0,8,0,8-8,8c-80,0-160,0-240,0c-1.9-2.3-0.5-4.4,0.6-6.4c3.6-6.3,7.4-12.6,10.8-19.1
			c0.8-1.5,2.1-3,1.6-5.4c-2.6,1.2-3.3,3.8-4.6,5.7c-3,4.4-5.8,6.2-9.2,4.9c-3.9-1.5-4.6-4.8-4-8.6c0.1-0.6-0.1-1.3-0.7-1.8
			c-3.7,3.3-2.8,9,1.8,11.6c6.4,3.6,6.6,3.7,2.9,10c-1.7,2.9-0.8,6.2-2.3,9c-16.1,0.1-32.4,0-48.6,0.2c-3.3,0-4.8-0.2-4.5-4.2
			c0.5-4.9,0.1-9.9,0.1-14.9c5.9-0.2,10.4-3.5,14.9-6.8c3-2.2,5.1-1.3,6.4,2.3c1.4,3.9,2.7,4,5.5,1.1c0.8-0.8,1.5-1.8,2.4-2.6
			c3.4-3,5.3-2.6,7.1,1.4c0.6,1.3,0.7,3.4,2.7,2.7c1.7-0.5,1.4-2.4,1.3-3.9c-0.5-5.9-3-7.8-9.2-6.9c-4.2,0.5-6.6-2-6.1-6.4
			c91.7,0,183.3,0,275-0.1c3.4,0,4.8,0.7,4,4.1c-4.7,1.9-9.6,0.8-14.4,1c-5,0.2-5.8,0.7-6,5.7c-0.2,4.1-0.2,8.3,0,12.4
			c0.3,4.4,1.7,5.6,6.2,5.9C-32.3,291.2-27.4,289.9-22.8,291.9z"/>
	</g>
	<g>
		<path class="st0" d="M-301.8,261.9c2.1,3.8,4.2,6,8.7,2.4c2.2-1.8,7.6,2.6,8.5,6.9c0.6,2.7,0.6,5.6,0.7,8.4c0,2-0.1,4.2-2.9,4.3
			c-2.8,0.1-4.9-0.9-5.5-3.9c-0.3-1.8-0.4-3.6-0.6-6.3c-2.6,2.8-4.6,5.1-6.7,7.2c-1.5,1.4-2.7,3.7-5.4,2.6c-2.8-1.1-3.2-3.6-2.8-6.2
			c0.1-0.8,0-1.6,0-3.4c-3.3,2.5-6.2,4.3-8.7,6.6c-3.5,3.3-6.7,3.8-10.2,0.3c0-1.3,0-2.7,0-4c3.6-7.4,10.8-10.3,17.7-13.6
			c1-0.5,2.3-0.4,3.2-1.3C-304.5,261.9-303.2,261.9-301.8,261.9z"/>
	</g>
	<g>
		<path class="st0" d="M-273.8,299.9c-3.2-2-3.5-4.5-1.5-7.5c1.6-2.5,3-5.1,4.5-7.7c-9.6-2.4-13-8.9-9.5-17.3
			c0.9-2.1,1.9-4.1,4.7-3.4c2.7,0.7,3.6,2.5,3.1,5.3c-0.5,2.9-2.5,6.7,1.7,8.2c4.4,1.5,5.4-2.8,7.1-5.4c1.3-1.9,2.5-3.9,3.7-5.9
			c1.4-2.3,3.1-2.8,5.5-1.4c2.4,1.5,1.7,3.2,0.6,5.1c-5.7,10-11.3,20-16.9,30C-271.8,299.9-272.8,299.9-273.8,299.9z"/>
	</g>
	<g>
		<path class="st0" d="M-22.8,291.9c-6.9,2.5-14.1,1-21.1,0.9c-1.8,0-2-1.9-2-3.5c0-7,0-14,0-20.9c0-1.6,0.2-3.5,2-3.5
			c7,0,14.2-1.6,21.1,1c0,0.7,0,1.3,0,2c-1.1,2.7-3.2,3.4-5.9,3.5c-2.2,0.1-4.7-0.7-6.9,1.5c1.8,2.2,4.2,1.5,6.3,1.7
			c2.9,0.2,5.4,0.8,5.4,4.4c0,3.5-2.5,4.2-5.4,4.4c-2,0.2-4.3-0.6-6.3,1.6c1.8,2.2,4.2,1.5,6.3,1.6c2.8,0.1,5.3,0.4,6.4,3.5
			C-22.8,290.6-22.8,291.2-22.8,291.9z"/>
	</g>
	<g>
		<path class="st0" d="M-22.8,289.9c-4.1-2.5-8.7-1-13.1-1.2c-2.7-0.2-4.7-0.1-4.7-3.9c0-3.7,1.8-4,4.6-3.9c2.5,0.1,5,0,7.5,0
			c1.6,0,3.3-0.1,3.4-2c0.1-2.3-1.8-2.4-3.5-2.5c-2.8-0.1-5.6-0.2-8.4,0c-3.1,0.2-3.4-1.6-3.4-4.1c0-2.7,1.2-3.2,3.6-3.4
			c4.7-0.3,9.6,1.3,14.1-1.1C-22.8,275.2-22.8,282.6-22.8,289.9z"/>
	</g>
	<g>
		<path class="st0" d="M-305.8,261.9c-6.3,6-14.1,9.9-21,15c0-4.3,0.1-8.7-0.1-13c0-1.7,0.3-2.1,2.1-2.1
			C-318.5,262-312.2,261.9-305.8,261.9z"/>
	</g>
	<g>
		<path class="st0" d="M-56.6,282.4c1.8,2.2,3.4,4.1,5,6c1,1.2,1.8,2.7,0.5,4c-1.4,1.3-3.1,0.9-4.4-0.5c-1.8-2-3.7-3.9-5.2-6.1
			c-1.9-2.9-4.6-3.3-7.4-2.5c-2.7,0.8-1.2,3.4-1.5,5.2c-0.3,2,0.1,4.4-2.7,4.5c-2.9,0.1-2.7-2.4-2.7-4.4c0-6.5,0.1-13-0.1-19.5
			c-0.1-3.5,1.3-4.8,4.7-4.6c2.7,0.2,5.3,0,8,0c5,0,9.9,0.5,11.8,6.2C-48.7,276.4-51.6,280-56.6,282.4z"/>
	</g>
	<g>
		<path class="st0" d="M-122.3,293.6c-3.3-0.2-6.7-0.9-9.7-2.8c-1.5-0.9-3.1-2-1.9-3.9c1.1-1.9,2.9-1.3,4.4-0.4
			c2.8,1.7,5.7,2.7,9,2.3c1.9-0.3,3.6-1,3.8-3.2c0.2-2.1-1.4-2.9-3-3.4c-2.8-0.9-5.8-1.6-8.6-2.5c-3.3-1.2-5.2-3.6-5.1-7.2
			c0.1-3.5,2-6,5.2-7.2c4.8-1.9,9.5-1.2,14,1.1c1.4,0.7,2.7,1.7,1.8,3.5c-0.9,1.7-2.5,1.6-3.9,0.9c-2.5-1.1-4.9-2.1-7.7-1.8
			c-1.8,0.2-3.3,0.8-3.7,2.8c-0.4,2.1,1.1,3,2.7,3.6c1.7,0.6,3.5,1,5.3,1.5c6.8,1.9,9.5,4.8,8.7,9.5
			C-111.7,290.8-116,293.6-122.3,293.6z"/>
	</g>
	<g>
		<path class="st0" d="M-137.3,290.6c-0.1,1.2-0.5,2.1-1.6,2.4c-1.4,0.4-3,0.1-3.4-1.3c-2.7-8.9-10-4.6-15.5-5.4
			c-2.4-0.4-2.7,2-3.5,3.6c-0.9,1.8-1.7,4.1-4.3,3.1c-2.8-1.2-1.3-3.3-0.5-5.1c3.3-6.9,6.5-13.9,10-20.7c2.1-4,5.4-4.2,7.4-0.3
			c3.7,7.2,7.1,14.7,10.7,22C-137.6,289.4-137.4,290.1-137.3,290.6z"/>
	</g>
	<g>
		<path class="st0" d="M-80.6,275.4c0,1.7,0,3.3,0,5c-0.2,8.9-4.7,13.4-13.2,13.3c-8.4,0-12.9-4.7-13-13.5c0-4,0-8,0-12
			c0-1.8,0.5-3.5,2.5-3.6c2.5-0.2,3,1.6,3,3.6c0.1,4.3-0.1,8.6,0.2,13c0.3,5.1,2.8,7.6,7.3,7.6c4.7,0.1,7.5-2.6,7.7-7.8
			c0.2-4.3,0.1-8.6,0.1-13c0-1.9,0.5-3.4,2.6-3.5c2.1-0.1,2.8,1.5,2.8,3.3C-80.6,270.4-80.6,272.9-80.6,275.4z"/>
	</g>
	<g>
		<path class="st0" d="M-182.7,293.1c-13.1-0.2-11.2,1.6-11.3-11.4c-0.1-4.3,0.1-8.6,0-13c-0.1-3,1.2-4.2,4.2-4.2c5,0.1,10,0,15,0
			c1.7,0,3.6,0,3.5,2.4c-0.1,2-1.9,2-3.4,2c-3.7,0-7.3,0.1-11,0c-2.6-0.1-3,1.3-3,3.4s-0.1,4.1,2.9,4c3.2-0.1,6.3,0,9.5,0.1
			c1.4,0,2.9,0.4,3,2c0.1,1.9-1.3,2.4-3,2.5c-2.8,0-5.7,0.1-8.5,0c-2.6-0.1-4,0.3-3.9,3.5c0.1,2.7,0.3,4.5,3.7,4.3
			c3.5-0.2,7-0.1,10.5,0c1.5,0,3.3,0.1,3.4,2.1c0.1,2.3-1.9,2.4-3.6,2.4C-177.4,293.1-180,293.1-182.7,293.1z"/>
	</g>
	<g>
		<path class="st0" d="M-247.2,278.8c0-3.3,0.1-6.7,0-10c-0.1-2.9,1.1-4.3,4.1-4.2c3.5,0.1,7-0.1,10.5,0.2c5.3,0.5,8.6,3.7,9,8.3
			c0.4,5.2-2.1,8.7-7.5,10.2c-1,0.3-2,0.6-2.9,0.5c-4.9-0.4-9.1-0.2-7.8,6.7c0.3,1.5-1,2.5-2.5,2.5c-1.9,0.1-2.7-1.1-2.7-2.8
			C-247.2,286.5-247.1,282.6-247.2,278.8L-247.2,278.8z"/>
	</g>
	<g>
		<path class="st0" d="M-219.7,278.5c0-3.5,0-7,0-10.5c0-1.8,0.6-3.4,2.7-3.5c2.4-0.1,3,1.6,3,3.7c0,5.3,0.2,10.6,0,15.9
			c-0.2,3.6,1.2,4.7,4.6,4.4c3-0.2,6,0,9,0.1c1.2,0,2.4,0.5,2.5,1.9c0.1,1.6-1,2.4-2.5,2.4c-5.3,0.1-10.6,0.1-15.9,0
			c-2.6,0-3.2-1.9-3.3-4.1C-219.7,285.5-219.7,282-219.7,278.5z"/>
	</g>
	<g>
		<path class="st0" d="M-64.1,278.7c-5,0.1-7.4-3.6-5.4-8.1c0.5-1.2,1.4-1.3,2.4-1.3c1.8,0,3.6-0.2,5.4,0c2.9,0.3,5.9,0.8,5.8,4.6
			c0,3.7-2.9,4.4-5.8,4.8C-62.5,278.8-63.3,278.7-64.1,278.7z"/>
	</g>
	<g>
		<path class="st0" d="M-147.4,281.5c-3.4,0.3-7.3,1.4-8.7-0.3c-1.7-2.1,1.6-4.9,2.4-7.5c0.2-0.8,0.8-1.5,1.3-2.5
			C-150.1,274.3-148.9,277.6-147.4,281.5z"/>
	</g>
	<g>
		<path class="st0" d="M-241.7,273.9c-0.9-3.8,0.8-5.1,4.5-4.7c3.5,0.3,7.7,0.2,7.9,4.9c0.1,5.1-4.3,4.9-8,5.3
			C-241.8,279.9-242.2,277.3-241.7,273.9z"/>
	</g>
</g>
</svg>
