<svg xmlns="http://www.w3.org/2000/svg" xmlns:xlink="http://www.w3.org/1999/xlink" preserveAspectRatio="xMidYMid" width="152" height="18.969" viewBox="0 0 152 18.969">
  <defs>
    <style>
      .cls-1 {
        fill: #fafafa;
        fill-rule: evenodd;
      }
    </style>
  </defs>
  <path d="M150.763,13.353 C151.298,13.353 151.808,13.658 151.951,14.139 C152.184,14.922 151.567,15.591 150.802,15.591 L141.816,15.591 C141.070,15.591 140.464,15.027 140.464,14.330 L140.464,2.608 C140.464,1.912 141.070,1.347 141.816,1.347 L150.655,1.347 C151.189,1.347 151.700,1.652 151.842,2.133 C152.074,2.916 151.458,3.585 150.693,3.585 L143.147,3.585 L143.147,7.289 L149.711,7.289 C150.415,7.289 150.993,7.878 150.901,8.574 C150.831,9.104 150.234,9.527 149.662,9.527 L143.147,9.527 L143.147,13.353 L150.763,13.353 ZM137.812,13.577 C138.074,13.882 138.248,14.146 138.248,14.533 C138.248,15.225 137.616,15.693 136.962,15.693 C136.351,15.693 135.959,15.429 135.653,15.042 L131.946,10.626 L128.566,10.626 L128.566,14.387 C128.566,14.999 128.042,15.623 127.389,15.686 C126.553,15.765 125.883,15.190 125.883,14.452 L125.883,2.608 C125.883,1.912 126.488,1.347 127.235,1.347 L132.687,1.347 C134.606,1.347 136.111,1.876 137.093,2.771 C137.900,3.545 138.358,4.603 138.358,5.844 L138.358,5.885 C138.358,8.164 136.940,9.548 134.890,10.138 L137.812,13.577 ZM135.631,6.027 L135.631,5.986 C135.631,4.460 134.454,3.626 132.469,3.626 L128.566,3.626 L128.566,8.408 L132.491,8.408 C134.410,8.408 135.631,7.472 135.631,6.027 ZM116.567,15.815 C112.598,15.815 110.068,13.678 110.068,9.548 L110.068,2.486 C110.068,1.749 110.736,1.174 111.573,1.252 C112.226,1.314 112.750,1.938 112.750,2.551 L112.750,9.446 C112.750,12.091 114.212,13.495 116.611,13.495 C118.988,13.495 120.449,12.173 120.449,9.548 L120.449,2.486 C120.449,1.749 121.118,1.173 121.954,1.252 C122.607,1.314 123.131,1.938 123.131,2.551 L123.131,9.426 C123.131,13.678 120.558,15.815 116.567,15.815 ZM102.481,15.795 C100.410,15.795 98.447,15.184 96.746,14.004 C96.426,13.791 96.203,13.423 96.224,12.992 C96.257,12.300 96.992,11.803 97.726,11.903 C97.966,11.936 98.138,12.018 98.272,12.111 C99.537,13.048 100.889,13.577 102.546,13.577 C104.204,13.577 105.251,12.844 105.251,11.786 L105.251,11.745 C105.251,10.728 104.640,10.178 101.805,9.568 C98.556,8.835 96.724,7.940 96.724,5.315 L96.724,5.274 C96.724,2.832 98.904,1.143 101.936,1.143 C103.855,1.143 105.403,1.612 106.777,2.466 C107.148,2.663 107.486,3.130 107.325,3.793 C107.222,4.221 106.822,4.546 106.357,4.606 C105.974,4.655 105.688,4.600 105.403,4.440 C104.226,3.728 103.091,3.362 101.892,3.362 C100.322,3.362 99.406,4.114 99.406,5.050 L99.406,5.091 C99.406,6.190 100.104,6.678 103.048,7.330 C106.275,8.062 107.933,9.141 107.933,11.501 L107.933,11.542 C107.933,14.208 105.687,15.795 102.481,15.795 ZM93.547,15.693 C92.915,15.693 92.479,15.347 92.239,14.818 L90.996,12.152 L83.581,12.152 L82.295,14.900 C82.078,15.405 81.625,15.689 81.064,15.693 C80.749,15.695 80.446,15.549 80.231,15.334 C79.709,14.811 79.725,14.444 79.983,13.963 L85.653,2.161 C85.958,1.530 86.503,1.143 87.267,1.143 L87.397,1.143 C88.161,1.143 88.684,1.530 88.990,2.161 L94.660,13.963 C94.768,14.146 94.812,14.330 94.812,14.493 C94.812,15.164 94.267,15.693 93.547,15.693 ZM87.289,4.175 L84.606,9.934 L89.971,9.934 L87.289,4.175 ZM76.715,15.591 L67.730,15.591 C66.984,15.591 66.378,15.027 66.378,14.330 L66.378,2.608 C66.378,1.912 66.984,1.347 67.730,1.347 L76.568,1.347 C77.103,1.347 77.614,1.652 77.756,2.133 C77.988,2.916 77.372,3.585 76.606,3.585 L69.061,3.585 L69.061,7.289 L75.625,7.289 C76.329,7.289 76.907,7.878 76.815,8.574 C76.745,9.104 76.148,9.527 75.576,9.527 L69.061,9.527 L69.061,13.353 L76.677,13.353 C77.211,13.353 77.722,13.658 77.865,14.139 C78.097,14.922 77.481,15.591 76.715,15.591 ZM63.275,15.591 L55.031,15.591 C54.285,15.591 53.679,15.027 53.679,14.330 L53.679,2.486 C53.679,1.749 54.349,1.173 55.185,1.252 C55.838,1.315 56.362,1.939 56.362,2.551 L56.362,13.312 L63.228,13.312 C63.763,13.312 64.277,13.608 64.435,14.085 C64.697,14.873 64.078,15.591 63.275,15.591 ZM45.533,11.013 L42.502,11.013 L42.502,14.387 C42.502,14.999 41.978,15.623 41.325,15.686 C40.489,15.765 39.819,15.190 39.819,14.452 L39.819,2.608 C39.819,1.912 40.425,1.347 41.171,1.347 L45.838,1.347 C49.415,1.347 51.639,3.239 51.639,6.109 L51.639,6.149 C51.639,9.344 48.891,11.013 45.533,11.013 ZM48.913,6.170 C48.913,4.501 47.627,3.626 45.620,3.626 L42.502,3.626 L42.502,8.754 L45.620,8.754 C47.648,8.754 48.913,7.696 48.913,6.210 L48.913,6.170 ZM27.960,18.764 C27.361,19.539 24.812,18.222 25.060,17.001 C25.369,15.482 28.850,10.407 29.015,10.147 C28.719,10.354 27.892,10.942 26.668,10.942 C25.533,10.942 24.193,10.009 23.655,9.157 C21.741,6.125 23.277,1.397 24.624,1.004 C26.089,0.751 27.498,1.910 27.273,3.070 C27.107,3.928 26.543,5.486 26.698,6.441 C27.019,8.418 29.564,8.647 30.543,7.015 C31.820,4.884 33.777,1.248 34.411,1.112 C35.559,0.866 37.620,1.878 36.806,3.262 C35.983,4.661 28.595,17.944 27.960,18.764 ZM17.496,10.016 C16.958,9.279 17.242,5.283 17.242,5.283 C16.909,5.606 13.268,10.158 11.853,10.996 C11.275,11.338 9.764,10.318 9.469,9.427 C9.212,8.647 9.834,5.650 9.834,5.650 C9.834,5.650 3.867,10.215 3.427,10.522 C2.987,10.829 2.625,10.997 2.162,10.809 C-0.207,9.845 -0.857,8.149 1.367,6.623 C1.367,6.623 10.215,0.658 10.401,0.508 C10.587,0.357 11.684,-0.443 12.462,0.327 C12.853,0.714 14.225,2.244 14.431,2.457 C14.623,2.657 14.858,2.501 15.112,2.332 C15.313,2.198 17.121,0.850 17.558,0.813 C17.985,0.777 18.315,0.956 18.689,1.384 C18.959,1.694 20.410,3.288 20.696,3.622 C20.841,3.790 20.993,4.056 21.093,4.401 C21.158,4.627 21.718,10.053 20.987,10.691 C20.017,11.538 18.040,10.760 17.496,10.016 Z" class="cls-1"/>
</svg>
